<?xml version="1.0" encoding="UTF-8" standalone="no"?>
<svg
   xmlns:dc="http://purl.org/dc/elements/1.1/"
   xmlns:cc="http://creativecommons.org/ns#"
   xmlns:rdf="http://www.w3.org/1999/02/22-rdf-syntax-ns#"
   xmlns:svg="http://www.w3.org/2000/svg"
   xmlns="http://www.w3.org/2000/svg"
   xmlns:sodipodi="http://sodipodi.sourceforge.net/DTD/sodipodi-0.dtd"
   xmlns:inkscape="http://www.inkscape.org/namespaces/inkscape"
   width="400mm"
   height="600mm"
   viewBox="0 0 400 600"
   version="1.1"
   id="svg8"
   inkscape:version="1.0.2-2 (e86c870879, 2021-01-15)"
   sodipodi:docname="Board.svg">
  <defs
     id="defs2" />
  <sodipodi:namedview
     id="base"
     pagecolor="#ffffff"
     bordercolor="#666666"
     borderopacity="1.0"
     inkscape:pageopacity="0.0"
     inkscape:pageshadow="2"
     inkscape:zoom="0.7"
     inkscape:cx="528.76149"
     inkscape:cy="1642.4168"
     inkscape:document-units="mm"
     inkscape:current-layer="layer1"
     inkscape:document-rotation="0"
     showgrid="false"
     inkscape:window-width="2560"
     inkscape:window-height="1369"
     inkscape:window-x="1912"
     inkscape:window-y="-8"
     inkscape:window-maximized="1" />
  <metadata
     id="metadata5">
    <rdf:RDF>
      <cc:Work
         rdf:about="">
        <dc:format>image/svg+xml</dc:format>
        <dc:type
           rdf:resource="http://purl.org/dc/dcmitype/StillImage" />
        <dc:title></dc:title>
      </cc:Work>
    </rdf:RDF>
  </metadata>
  <g
     inkscape:label="Layer 1"
     inkscape:groupmode="layer"
     id="layer1">
    <path
       id="rect1578"
       style="font-variation-settings:normal;opacity:1;vector-effect:none;fill:none;fill-opacity:1;fill-rule:evenodd;stroke:#000000;stroke-width:0.1;stroke-linecap:butt;stroke-linejoin:miter;stroke-miterlimit:4;stroke-dasharray:none;stroke-dashoffset:0;stroke-opacity:0.995983;stop-color:#000000;stop-opacity:1"
       d="M 27.389878,316.33674 H 369.38988 V 487.33676 H 27.389878 Z m 6e-6,152.00002 h 19 v 19 h -19 z m 76.000006,0 h 19 v 19 h -19 z m 37.99997,0 h 19 v 19 h -19 z m 38,0 h 19 v 19 h -19 z m 38.00002,0 h 19 v 19 h -19 z m 37.99998,0 h 19 v 19 h -19 z m 38,0 h 19 v 19 h -19 z m 38,0 h 19 v 19 h -19 z m -265.99998,0 h 19 v 19 h -19 z m -38.000008,-38 h 19 v 19 h -19 z m 4e-6,-38 h 19 v 19 h -19 z m 0,-38 h 19 v 19 h -19 z m 4e-6,-38.00002 h 19 v 19 h -19 z m 18.999996,133.00003 h 19 v 19 h -19 z m 0,-38 h 19 v 19 h -19 z m 0,-38.00001 h 19 v 19 h -19 z m 0,-38 h 19 v 19 h -19 z m 76.000004,114 h 19 v 19 h -19 z m 37.99998,0 h 19 v 19 h -19 z m 38,0 h 19 v 19 h -19 z m 38,0 h 19 v 19 h -19 z m 38,0 h 19 v 19 h -19 z m 38,0 h 19 v 19 h -19 z m 38,0 h 19 v 19 h -19 z m -19,-19 h 19 v 19 h -19 z m -38,0 h 19 v 19 h -19 z m -38,0 h 19 v 19 h -19 z m -38,0 h 19 v 19 h -19 z m -38,0 h 19 v 19 h -19 z m -37.99998,0 h 19 v 19 h -19 z m -37.99998,0 h 19 v 19 h -19 z m 18.99999,-19 h 19 v 19 h -19 z m 37.99999,0 h 19 v 19 h -19 z m 37.99998,0 h 19 v 19 h -19 z m 38,0 h 19 v 19 h -19 z m 38,0 h 19 v 19 h -19 z m 38,0 h 19 v 19 h -19 z m 38,0 h 19 v 19 h -19 z m -19,-19 h 19 v 19 h -19 z m -38,0 h 19 v 19 h -19 z m -38,0 h 19 v 19 h -19 z m -38,0 h 19 v 19 h -19 z m -37.99998,0 h 19 v 19 h -19 z m -37.99999,0 h 19 v 19 h -19 z m -38.00001,0 h 19 v 19 h -19 z m 246.99998,-19 h 19 v 19 h -19 z m -38,0 h 19 v 19 h -19 z m -38,0 h 19 v 19 h -19 z m -38,0 h 19 v 19 h -19 z m -37.99998,0 h 19 v 19 h -19 z m -37.99999,0 h 19 v 19 h -19 z m -38.00001,0 h 19 v 19 h -19 z m 208.99998,-19 h 19 v 19 h -19 z m -38,0 h 19 v 19 h -19 z m -38,0 h 19 v 19 h -19 z m -37.99998,0 h 19 v 19 h -19 z m -38,0 h 19 v 19 h -19 z m -38,0 h 19 v 19 h -19 z m -38,0 h 19 v 19 h -19 z m -38.000008,76 h 19 v 19 h -19 z m 19.000004,19 h 19.000004 v 19 H 84.389876 Z m 0,-38 h 19.000004 v 19 H 84.389876 Z m -19,-19 h 19 v 19 h -19 z m 19,-19 h 19.000004 v 19 H 84.389876 Z m -19,-19 h 19 v 19 h -19 z M 350.38986,335.33675 h 19 v 19 h -19 z m -19,-19 h 19 v 19 h -19 z m -19,19.00001 h 19 v 19 h -19 z m -19,-19 h 19 v 19 h -19 z m -19,19 h 19 v 19 h -19 z m -18.99998,-19 h 19 v 19 h -19 z m -19,19 h 19 v 19 h -19 z m -19,-19 h 19 v 19 h -19 z m -19,19 h 19 v 19 h -19 z m -19,-19 h 19 v 19 h -19 z m -19,18.99999 h 19 v 19 h -19 z m -19,-19 h 19 v 19 h -19 z m -19,19 h 19 v 19 h -19 z m -19,-19 h 19 v 19 h -19 z m -19.000004,19 h 19.000004 v 19 H 84.389876 Z m -18.999996,-19 h 19 v 19 h -19 z" />
    <path
       id="rect833-37-89-8-8"
       style="font-variation-settings:normal;vector-effect:none;fill:none;fill-opacity:1;fill-rule:evenodd;stroke:#000000;stroke-width:0.1;stroke-linecap:butt;stroke-linejoin:miter;stroke-miterlimit:4;stroke-dasharray:none;stroke-dashoffset:0;stroke-opacity:0.995983;stop-color:#000000"
       d="m 350.38986,507.97439 h 19 v 19 h -19 z m -19,0 h 19 v 19 h -19 z m -19,0 h 19 v 19 h -19 z m -19,0 h 19 v 19 h -19 z m -19,0 h 19 v 19 h -19 z m -18.99998,0 h 19 v 19 h -19 z m -19,0 h 19 v 19 h -19 z m -19,0 h 19 v 19 h -19 z m -19,0 h 19 v 19 h -19 z m -19,0 h 19 v 19 h -19 z m -19,0 h 19 v 19 h -19 z m -19,0 h 19 v 19 h -19 z m -19,0 h 19 v 19 h -19 z m -19,0 h 19 v 19 h -19 z m -19.000005,0 h 19.000005 v 19 H 84.389875 Z m -18.999996,0 h 19 v 19 h -19 z m -19,0 h 19 v 19 h -19 z m -19,0 h 19 v 19 h -19 z" />
    <text
       xml:space="preserve"
       style="font-style:normal;font-weight:normal;font-size:10.5833px;line-height:1.25;font-family:sans-serif;fill:#000000;fill-opacity:1;stroke:none;stroke-width:0.264583"
       x="35.151787"
       y="497.03867"
       id="text1909"><tspan
         sodipodi:role="line"
         id="tspan1907"
         x="35.151787"
         y="497.03867"
         style="stroke-width:0.264583" /></text>
    <text
       xml:space="preserve"
       style="font-style:normal;font-weight:normal;font-size:10.5833px;line-height:1.25;font-family:sans-serif;fill:#000000;fill-opacity:1;stroke:none;stroke-width:0.264583"
       x="31.372023"
       y="501.95242"
       id="text1913"><tspan
         sodipodi:role="line"
         id="tspan1911"
         x="31.372023"
         y="501.95242"
         style="font-style:normal;font-variant:normal;font-weight:normal;font-stretch:normal;font-size:14.1111px;font-family:'Old English Text MT';-inkscape-font-specification:'Old English Text MT';stroke-width:0.264583">A</tspan></text>
    <text
       xml:space="preserve"
       style="font-style:normal;font-weight:normal;font-size:10.5833px;line-height:1.25;font-family:sans-serif;fill:#000000;fill-opacity:1;stroke:none;stroke-width:0.264583"
       x="57.452377"
       y="499.30658"
       id="text1917"><tspan
         sodipodi:role="line"
         id="tspan1915"
         x="57.452377"
         y="499.30658"
         style="stroke-width:0.264583" /></text>
    <text
       xml:space="preserve"
       style="font-style:normal;font-weight:normal;font-size:10.5833px;line-height:1.25;font-family:sans-serif;fill:#000000;fill-opacity:1;stroke:none;stroke-width:0.264583"
       x="75.973213"
       y="495.52676"
       id="text1921"><tspan
         sodipodi:role="line"
         id="tspan1919"
         x="75.973213"
         y="495.52676"
         style="stroke-width:0.264583" /></text>
    <text
       xml:space="preserve"
       style="font-style:normal;font-weight:normal;font-size:10.5833px;line-height:1.25;font-family:sans-serif;fill:#000000;fill-opacity:1;stroke:none;stroke-width:0.264583"
       x="54.428574"
       y="497.79465"
       id="text1925"><tspan
         sodipodi:role="line"
         id="tspan1923"
         x="54.428574"
         y="497.79465"
         style="stroke-width:0.264583" /></text>
    <text
       xml:space="preserve"
       style="font-style:normal;font-variant:normal;font-weight:normal;font-stretch:normal;font-size:14.1111px;font-family:'Old English Text MT';-inkscape-font-specification:'Old English Text MT';fill:none;stroke:#000000;stroke-width:0.1;stroke-miterlimit:4;stroke-dasharray:none;stroke-opacity:0.995983"
       x="49.281666"
       y="501.80368"
       id="text1929"><tspan
         sodipodi:role="line"
         id="tspan1927"
         x="49.281666"
         y="501.80368"
         style="fill:#000000;fill-opacity:1;stroke-width:0.1">B</tspan></text>
    <text
       xml:space="preserve"
       style="font-style:normal;font-variant:normal;font-weight:normal;font-stretch:normal;font-size:14.1111px;font-family:'Old English Text MT';-inkscape-font-specification:'Old English Text MT';fill:#000000;fill-opacity:1;stroke:#000000;stroke-width:0.1;stroke-miterlimit:4;stroke-dasharray:none;stroke-opacity:0.995983"
       x="68.821907"
       y="501.79855"
       id="text1933"><tspan
         sodipodi:role="line"
         id="tspan1931"
         x="68.821907"
         y="501.79855"
         style="stroke-width:0.1">C</tspan></text>
    <text
       xml:space="preserve"
       style="font-style:normal;font-variant:normal;font-weight:normal;font-stretch:normal;font-size:14.1111px;font-family:'Old English Text MT';-inkscape-font-specification:'Old English Text MT';fill:#000000;fill-opacity:1;stroke:#000000;stroke-width:0.1;stroke-miterlimit:4;stroke-dasharray:none;stroke-opacity:0.995983"
       x="87.931671"
       y="501.39761"
       id="text1937"><tspan
         sodipodi:role="line"
         id="tspan1935"
         x="87.931671"
         y="501.39761"
         style="stroke-width:0.1">D</tspan></text>
    <text
       xml:space="preserve"
       style="font-style:normal;font-variant:normal;font-weight:normal;font-stretch:normal;font-size:14.1111px;font-family:'Old English Text MT';-inkscape-font-specification:'Old English Text MT';fill:#000000;fill-opacity:1;stroke:#000000;stroke-width:0.1;stroke-miterlimit:4;stroke-dasharray:none;stroke-opacity:0.995983"
       x="107.57599"
       y="501.79852"
       id="text1941"><tspan
         sodipodi:role="line"
         id="tspan1939"
         x="107.57599"
         y="501.79852"
         style="stroke-width:0.1">E</tspan></text>
    <text
       xml:space="preserve"
       style="font-style:normal;font-variant:normal;font-weight:normal;font-stretch:normal;font-size:14.1111px;font-family:'Old English Text MT';-inkscape-font-specification:'Old English Text MT';fill:#000000;fill-opacity:1;stroke:#000000;stroke-width:0.1;stroke-miterlimit:4;stroke-dasharray:none;stroke-opacity:0.995983"
       x="125.61668"
       y="500.72946"
       id="text1945"><tspan
         sodipodi:role="line"
         id="tspan1943"
         x="125.61668"
         y="500.72946"
         style="stroke-width:0.1">F</tspan></text>
    <text
       xml:space="preserve"
       style="font-style:normal;font-variant:normal;font-weight:normal;font-stretch:normal;font-size:14.1111px;font-family:'Old English Text MT';-inkscape-font-specification:'Old English Text MT';fill:#000000;fill-opacity:1;stroke:#000000;stroke-width:0.1;stroke-miterlimit:4;stroke-dasharray:none;stroke-opacity:0.995983"
       x="145.12735"
       y="501.39764"
       id="text1949"><tspan
         sodipodi:role="line"
         id="tspan1947"
         x="145.12735"
         y="501.39764"
         style="stroke-width:0.1">G</tspan></text>
    <text
       xml:space="preserve"
       style="font-style:normal;font-variant:normal;font-weight:normal;font-stretch:normal;font-size:14.1111px;font-family:'Old English Text MT';-inkscape-font-specification:'Old English Text MT';fill:#000000;fill-opacity:1;stroke:#000000;stroke-width:0.1;stroke-miterlimit:4;stroke-dasharray:none;stroke-opacity:0.995983"
       x="164.23711"
       y="500.72946"
       id="text1953"><tspan
         sodipodi:role="line"
         id="tspan1951"
         x="164.23711"
         y="500.72946"
         style="stroke-width:0.1">H</tspan></text>
    <text
       xml:space="preserve"
       style="font-style:normal;font-variant:normal;font-weight:normal;font-stretch:normal;font-size:14.1111px;font-family:'Old English Text MT';-inkscape-font-specification:'Old English Text MT';fill:#000000;fill-opacity:1;stroke:#000000;stroke-width:0.1;stroke-miterlimit:4;stroke-dasharray:none;stroke-opacity:0.995983"
       x="183.61417"
       y="501.93219"
       id="text1957"><tspan
         sodipodi:role="line"
         id="tspan1955"
         x="183.61417"
         y="501.93219"
         style="stroke-width:0.1">I</tspan></text>
    <text
       xml:space="preserve"
       style="font-style:normal;font-variant:normal;font-weight:normal;font-stretch:normal;font-size:14.1111px;font-family:'Old English Text MT';-inkscape-font-specification:'Old English Text MT';fill:#000000;fill-opacity:1;stroke:#000000;stroke-width:0.1;stroke-miterlimit:4;stroke-dasharray:none;stroke-opacity:0.995983"
       x="202.45667"
       y="500.86307"
       id="text1961"><tspan
         sodipodi:role="line"
         id="tspan1959"
         x="202.45667"
         y="500.86307"
         style="stroke-width:0.1">J</tspan></text>
    <text
       xml:space="preserve"
       style="font-style:normal;font-variant:normal;font-weight:normal;font-stretch:normal;font-size:14.1111px;font-family:'Old English Text MT';-inkscape-font-specification:'Old English Text MT';fill:#000000;fill-opacity:1;stroke:#000000;stroke-width:0.1;stroke-miterlimit:4;stroke-dasharray:none;stroke-opacity:0.995983"
       x="220.631"
       y="501.93219"
       id="text1965"><tspan
         sodipodi:role="line"
         id="tspan1963"
         x="220.631"
         y="501.93219"
         style="stroke-width:0.1">K</tspan></text>
    <text
       xml:space="preserve"
       style="font-style:normal;font-variant:normal;font-weight:normal;font-stretch:normal;font-size:14.1111px;font-family:'Old English Text MT';-inkscape-font-specification:'Old English Text MT';fill:#000000;fill-opacity:1;stroke:#000000;stroke-width:0.1;stroke-miterlimit:4;stroke-dasharray:none;stroke-opacity:0.995983"
       x="239.20622"
       y="501.93213"
       id="text1969"><tspan
         sodipodi:role="line"
         id="tspan1967"
         x="239.20622"
         y="501.93213"
         style="stroke-width:0.1">L:</tspan></text>
    <text
       xml:space="preserve"
       style="font-style:normal;font-variant:normal;font-weight:normal;font-stretch:normal;font-size:14.1111px;font-family:'Old English Text MT';-inkscape-font-specification:'Old English Text MT';fill:#000000;fill-opacity:1;stroke:#000000;stroke-width:0.1;stroke-miterlimit:4;stroke-dasharray:none;stroke-opacity:0.995983"
       x="257.78146"
       y="501.13037"
       id="text1973"><tspan
         sodipodi:role="line"
         id="tspan1971"
         x="257.78146"
         y="501.13037"
         style="stroke-width:0.1">M</tspan></text>
    <text
       xml:space="preserve"
       style="font-style:normal;font-variant:normal;font-weight:normal;font-stretch:normal;font-size:14.1111px;font-family:'Old English Text MT';-inkscape-font-specification:'Old English Text MT';fill:#000000;fill-opacity:1;stroke:#000000;stroke-width:0.1;stroke-miterlimit:4;stroke-dasharray:none;stroke-opacity:0.995983"
       x="275.68851"
       y="501.53128"
       id="text1977"><tspan
         sodipodi:role="line"
         id="tspan1975"
         x="275.68851"
         y="501.53128"
         style="stroke-width:0.1">N</tspan></text>
    <text
       xml:space="preserve"
       style="font-style:normal;font-variant:normal;font-weight:normal;font-stretch:normal;font-size:14.1111px;font-family:'Old English Text MT';-inkscape-font-specification:'Old English Text MT';fill:#000000;fill-opacity:1;stroke:#000000;stroke-width:0.1;stroke-miterlimit:4;stroke-dasharray:none;stroke-opacity:0.995983"
       x="296.40192"
       y="502.0658"
       id="text1981"><tspan
         sodipodi:role="line"
         id="tspan1979"
         x="296.40192"
         y="502.0658"
         style="stroke-width:0.1">O</tspan></text>
    <text
       xml:space="preserve"
       style="font-style:normal;font-variant:normal;font-weight:normal;font-stretch:normal;font-size:14.1111px;font-family:'Old English Text MT';-inkscape-font-specification:'Old English Text MT';fill:#000000;fill-opacity:1;stroke:#000000;stroke-width:0.1;stroke-miterlimit:4;stroke-dasharray:none;stroke-opacity:0.995983"
       x="315.37802"
       y="500.72946"
       id="text1985"><tspan
         sodipodi:role="line"
         id="tspan1983"
         x="315.37802"
         y="500.72946"
         style="stroke-width:0.1">P</tspan></text>
    <text
       xml:space="preserve"
       style="font-style:normal;font-variant:normal;font-weight:normal;font-stretch:normal;font-size:14.1111px;font-family:'Old English Text MT';-inkscape-font-specification:'Old English Text MT';fill:#000000;fill-opacity:1;stroke:#000000;stroke-width:0.1;stroke-miterlimit:4;stroke-dasharray:none;stroke-opacity:0.995983"
       x="334.62143"
       y="501.53128"
       id="text1989"><tspan
         sodipodi:role="line"
         id="tspan1987"
         x="334.62143"
         y="501.53128"
         style="stroke-width:0.1">Q</tspan></text>
    <text
       xml:space="preserve"
       style="font-style:normal;font-variant:normal;font-weight:normal;font-stretch:normal;font-size:14.1111px;font-family:'Old English Text MT';-inkscape-font-specification:'Old English Text MT';fill:#000000;fill-opacity:1;stroke:#000000;stroke-width:0.1;stroke-miterlimit:4;stroke-dasharray:none;stroke-opacity:0.995983"
       x="353.06302"
       y="501.66492"
       id="text1993"><tspan
         sodipodi:role="line"
         id="tspan1991"
         x="353.06302"
         y="501.66492"
         style="stroke-width:0.1">R</tspan></text>
    <text
       xml:space="preserve"
       style="font-style:normal;font-variant:normal;font-weight:normal;font-stretch:normal;font-size:14.1111px;font-family:'Old English Text MT';-inkscape-font-specification:'Old English Text MT';fill:#000000;fill-opacity:1;stroke:#000000;stroke-width:0.1;stroke-miterlimit:4;stroke-dasharray:none;stroke-opacity:0.995983"
       x="18.593552"
       y="483.70667"
       id="text1997"><tspan
         sodipodi:role="line"
         id="tspan1995"
         x="18.593552"
         y="483.70667"
         style="stroke-width:0.1">1</tspan></text>
    <text
       xml:space="preserve"
       style="font-style:normal;font-variant:normal;font-weight:normal;font-stretch:normal;font-size:14.1111px;font-family:'Old English Text MT';-inkscape-font-specification:'Old English Text MT';fill:#000000;fill-opacity:1;stroke:#000000;stroke-width:0.1;stroke-miterlimit:4;stroke-dasharray:none;stroke-opacity:0.995983"
       x="18.990522"
       y="464.07483"
       id="text2001"><tspan
         sodipodi:role="line"
         id="tspan1999"
         x="18.990522"
         y="464.07483"
         style="stroke-width:0.1">2</tspan></text>
    <text
       xml:space="preserve"
       style="font-style:normal;font-variant:normal;font-weight:normal;font-stretch:normal;font-size:14.1111px;font-family:'Old English Text MT';-inkscape-font-specification:'Old English Text MT';fill:#000000;fill-opacity:1;stroke:#000000;stroke-width:0.1;stroke-miterlimit:4;stroke-dasharray:none;stroke-opacity:0.995983"
       x="19.34557"
       y="444.5347"
       id="text2005"><tspan
         sodipodi:role="line"
         id="tspan2003"
         x="19.34557"
         y="444.5347"
         style="stroke-width:0.1">3</tspan></text>
    <text
       xml:space="preserve"
       style="font-style:normal;font-variant:normal;font-weight:normal;font-stretch:normal;font-size:14.1111px;font-family:'Old English Text MT';-inkscape-font-specification:'Old English Text MT';fill:#000000;fill-opacity:1;stroke:#000000;stroke-width:0.1;stroke-miterlimit:4;stroke-dasharray:none;stroke-opacity:0.995983"
       x="18.898809"
       y="425.03262"
       id="text2009"><tspan
         sodipodi:role="line"
         id="tspan2007"
         x="18.898809"
         y="425.03262"
         style="stroke-width:0.1">4</tspan></text>
    <text
       xml:space="preserve"
       style="font-style:normal;font-variant:normal;font-weight:normal;font-stretch:normal;font-size:14.1111px;font-family:'Old English Text MT';-inkscape-font-specification:'Old English Text MT';fill:#000000;fill-opacity:1;stroke:#000000;stroke-width:0.1;stroke-miterlimit:4;stroke-dasharray:none;stroke-opacity:0.995983"
       x="19.166079"
       y="406.48492"
       id="text2013"><tspan
         sodipodi:role="line"
         id="tspan2011"
         x="19.166079"
         y="406.48492"
         style="stroke-width:0.1">5</tspan></text>
    <text
       xml:space="preserve"
       style="font-style:normal;font-variant:normal;font-weight:normal;font-stretch:normal;font-size:14.1111px;font-family:'Old English Text MT';-inkscape-font-specification:'Old English Text MT';fill:#000000;fill-opacity:1;stroke:#000000;stroke-width:0.1;stroke-miterlimit:4;stroke-dasharray:none;stroke-opacity:0.995983"
       x="18.898809"
       y="386.70041"
       id="text2017"><tspan
         sodipodi:role="line"
         id="tspan2015"
         x="18.898809"
         y="386.70041"
         style="stroke-width:0.1">6</tspan></text>
    <text
       xml:space="preserve"
       style="font-style:normal;font-variant:normal;font-weight:normal;font-stretch:normal;font-size:14.1111px;font-family:'Old English Text MT';-inkscape-font-specification:'Old English Text MT';fill:#000000;fill-opacity:1;stroke:#000000;stroke-width:0.1;stroke-miterlimit:4;stroke-dasharray:none;stroke-opacity:0.995983"
       x="370.88486"
       y="482.85968"
       id="text1997-6"><tspan
         sodipodi:role="line"
         id="tspan1995-3"
         x="370.88486"
         y="482.85968"
         style="stroke-width:0.1">1</tspan></text>
    <text
       xml:space="preserve"
       style="font-style:normal;font-variant:normal;font-weight:normal;font-stretch:normal;font-size:14.1111px;font-family:'Old English Text MT';-inkscape-font-specification:'Old English Text MT';fill:#000000;fill-opacity:1;stroke:#000000;stroke-width:0.1;stroke-miterlimit:4;stroke-dasharray:none;stroke-opacity:0.995983"
       x="371.28183"
       y="463.22784"
       id="text2001-7"><tspan
         sodipodi:role="line"
         id="tspan1999-5"
         x="371.28183"
         y="463.22784"
         style="stroke-width:0.1">2</tspan></text>
    <text
       xml:space="preserve"
       style="font-style:normal;font-variant:normal;font-weight:normal;font-stretch:normal;font-size:14.1111px;font-family:'Old English Text MT';-inkscape-font-specification:'Old English Text MT';fill:#000000;fill-opacity:1;stroke:#000000;stroke-width:0.1;stroke-miterlimit:4;stroke-dasharray:none;stroke-opacity:0.995983"
       x="371.63687"
       y="443.68771"
       id="text2005-0"><tspan
         sodipodi:role="line"
         id="tspan2003-4"
         x="371.63687"
         y="443.68771"
         style="stroke-width:0.1">3</tspan></text>
    <text
       xml:space="preserve"
       style="font-style:normal;font-variant:normal;font-weight:normal;font-stretch:normal;font-size:14.1111px;font-family:'Old English Text MT';-inkscape-font-specification:'Old English Text MT';fill:#000000;fill-opacity:1;stroke:#000000;stroke-width:0.1;stroke-miterlimit:4;stroke-dasharray:none;stroke-opacity:0.995983"
       x="371.19012"
       y="424.18564"
       id="text2009-2"><tspan
         sodipodi:role="line"
         id="tspan2007-7"
         x="371.19012"
         y="424.18564"
         style="stroke-width:0.1">4</tspan></text>
    <text
       xml:space="preserve"
       style="font-style:normal;font-variant:normal;font-weight:normal;font-stretch:normal;font-size:14.1111px;font-family:'Old English Text MT';-inkscape-font-specification:'Old English Text MT';fill:#000000;fill-opacity:1;stroke:#000000;stroke-width:0.1;stroke-miterlimit:4;stroke-dasharray:none;stroke-opacity:0.995983"
       x="371.4574"
       y="405.63794"
       id="text2013-3"><tspan
         sodipodi:role="line"
         id="tspan2011-9"
         x="371.4574"
         y="405.63794"
         style="stroke-width:0.1">5</tspan></text>
    <text
       xml:space="preserve"
       style="font-style:normal;font-variant:normal;font-weight:normal;font-stretch:normal;font-size:14.1111px;font-family:'Old English Text MT';-inkscape-font-specification:'Old English Text MT';fill:#000000;fill-opacity:1;stroke:#000000;stroke-width:0.1;stroke-miterlimit:4;stroke-dasharray:none;stroke-opacity:0.995983"
       x="371.19012"
       y="385.85342"
       id="text2017-2"><tspan
         sodipodi:role="line"
         id="tspan2015-6"
         x="371.19012"
         y="385.85342"
         style="stroke-width:0.1">6</tspan></text>
    <text
       xml:space="preserve"
       style="font-style:normal;font-variant:normal;font-weight:normal;font-stretch:normal;font-size:14.1111px;font-family:'Old English Text MT';-inkscape-font-specification:'Old English Text MT';fill:#000000;fill-opacity:1;stroke:#000000;stroke-width:0.1;stroke-miterlimit:4;stroke-dasharray:none;stroke-opacity:0.995983"
       x="129.89299"
       y="551.64435"
       id="text2085"><tspan
         sodipodi:role="line"
         id="tspan2083"
         x="129.89299"
         y="551.64435"
         style="font-size:25.4px;stroke-width:0.1">Archers' Hill</tspan></text>
    <path
       id="rect2216-7"
       style="font-variation-settings:normal;vector-effect:none;fill:none;fill-opacity:1;fill-rule:evenodd;stroke:#000000;stroke-width:0.340248;stroke-linecap:butt;stroke-linejoin:miter;stroke-miterlimit:4;stroke-dasharray:none;stroke-dashoffset:0;stroke-opacity:0.995983;stop-color:#000000"
       d="m 351.92642,545.99617 v -4.2504 h 13.43941 v 0.0936 z m 0,-8.5008 v 4.2504 h 13.43941 v -0.0936 z m -53.50532,4.2504 h 53.50532 m -65.94995,5.3454 7.57769,-5.3454 h 4.86694 v 0.0367 l -7.5256,5.30873 z m -4.86694,-0.0367 7.57767,-5.3454 h 4.86696 v 0.0367 l -7.52562,5.30873 z m -4.86696,-0.0367 7.57768,-5.3454 h 4.86695 v 0.0367 l -7.52561,5.30873 z m 9.7339,-10.69083 7.57769,5.3454 h 4.86694 v -0.0367 l -7.5256,-5.30873 z m -4.86694,0.0367 7.57767,5.3454 h 4.86696 v -0.0367 l -7.52562,-5.30873 z m -4.86696,0.0367 7.57768,5.3454 h 4.86695 v -0.0367 l -7.52561,-5.30873 z" />
    <path
       id="rect2216-7-3"
       style="font-variation-settings:normal;vector-effect:none;fill:none;fill-opacity:1;fill-rule:evenodd;stroke:#000000;stroke-width:0.340248;stroke-linecap:butt;stroke-linejoin:miter;stroke-miterlimit:4;stroke-dasharray:none;stroke-dashoffset:0;stroke-opacity:0.995983;stop-color:#000000"
       d="m 45.361793,546.10629 v -4.2504 H 31.922389 v 0.0936 z m 0,-8.5008 v 4.2504 H 31.922389 v -0.0936 z m 53.50529,4.2504 h -53.50529 m 65.949917,5.3454 -7.57769,-5.3454 h -4.866937 v 0.0367 l 7.525597,5.30873 z m 4.86694,-0.0367 -7.57767,-5.3454 h -4.86696 v 0.0367 l 7.52562,5.30873 z m 4.86696,-0.0367 -7.57768,-5.3454 h -4.86695 v 0.0367 l 7.52561,5.30873 z m -9.7339,-10.69083 -7.57769,5.3454 h -4.866937 v -0.0367 l 7.525597,-5.30873 z m 4.86694,0.0367 -7.57767,5.3454 h -4.86696 v -0.0367 l 7.52562,-5.30873 z m 4.86696,0.0367 -7.57768,5.3454 h -4.86695 v -0.0367 l 7.52561,-5.30873 z" />
    <g
       id="g2635">
      <path
         style="fill:#000000;fill-opacity:1;stroke:#000000;stroke-width:0.264583px;stroke-linecap:butt;stroke-linejoin:miter;stroke-opacity:1"
         d="m 27.389875,373.33678 19.000004,-57.00003 18.999999,3e-5 -19.000004,57 z"
         id="path2356" />
      <path
         id="path2356-9"
         style="fill:#000000;fill-opacity:1;stroke:#000000;stroke-width:0.999999px;stroke-linecap:butt;stroke-linejoin:miter;stroke-opacity:1"
         d="M 318.95312 1195.6035 L 306.70898 1232.334 L 378.52148 1232.334 L 390.76562 1195.6035 L 318.95312 1195.6035 z M 266.18555 1353.9082 L 247.14258 1411.0371 L 318.95312 1411.0371 L 331.66016 1372.9141 L 266.18555 1372.9141 L 266.18555 1353.9082 z "
         transform="scale(0.26458333)" />
      <path
         id="path2356-92"
         style="fill:#000000;fill-opacity:1;stroke:#000000;stroke-width:0.999999px;stroke-linecap:butt;stroke-linejoin:miter;stroke-opacity:1"
         d="M 462.57617 1195.6035 L 450.33203 1232.334 L 522.14258 1232.334 L 534.38672 1195.6035 L 462.57617 1195.6035 z M 403.47266 1372.9141 L 390.76562 1411.0371 L 462.57617 1411.0371 L 475.2832 1372.9141 L 403.47266 1372.9141 z "
         transform="scale(0.26458333)" />
      <path
         id="path2356-8"
         style="fill:#000000;fill-opacity:1;stroke:#000000;stroke-width:0.999999px;stroke-linecap:butt;stroke-linejoin:miter;stroke-opacity:1"
         d="M 606.19727 1195.6035 L 593.95312 1232.334 L 665.76562 1232.334 L 678.00977 1195.6035 L 606.19727 1195.6035 z M 547.09375 1372.9141 L 534.38672 1411.0371 L 606.19727 1411.0371 L 618.9043 1372.9141 L 547.09375 1372.9141 z "
         transform="scale(0.26458333)" />
      <path
         id="path2356-7"
         style="fill:#000000;fill-opacity:1;stroke:#000000;stroke-width:0.999999px;stroke-linecap:butt;stroke-linejoin:miter;stroke-opacity:1"
         d="M 749.82031 1195.6035 L 737.57617 1232.334 L 809.38672 1232.334 L 821.63086 1195.6035 L 749.82031 1195.6035 z M 690.7168 1372.9141 L 678.00977 1411.0371 L 749.82031 1411.0371 L 762.52734 1372.9141 L 690.7168 1372.9141 z "
         transform="scale(0.26458333)" />
      <path
         id="path2356-6"
         style="fill:#000000;fill-opacity:1;stroke:#000000;stroke-width:0.999999px;stroke-linecap:butt;stroke-linejoin:miter;stroke-opacity:1"
         d="M 893.44141 1195.6035 L 881.19727 1232.334 L 953.00977 1232.334 L 965.25391 1195.6035 L 893.44141 1195.6035 z M 834.33789 1372.9141 L 821.63086 1411.0371 L 893.44141 1411.0371 L 906.14844 1372.9141 L 834.33789 1372.9141 z "
         transform="scale(0.26458333)" />
      <path
         id="path2356-4"
         style="fill:#000000;fill-opacity:1;stroke:#000000;stroke-width:0.999999px;stroke-linecap:butt;stroke-linejoin:miter;stroke-opacity:1"
         d="M 1037.0645 1195.6035 L 1024.8203 1232.334 L 1096.6309 1232.334 L 1108.875 1195.6035 L 1037.0645 1195.6035 z M 977.96094 1372.9141 L 965.25391 1411.0371 L 1037.0645 1411.0371 L 1049.7715 1372.9141 L 977.96094 1372.9141 z "
         transform="scale(0.26458333)" />
      <path
         id="path2356-3"
         style="fill:#000000;fill-opacity:1;stroke:#000000;stroke-width:0.999999px;stroke-linecap:butt;stroke-linejoin:miter;stroke-opacity:1"
         d="M 1180.6855 1195.6035 L 1168.4414 1232.334 L 1235.1992 1232.334 L 1235.1992 1247.5 L 1252.498 1195.6035 L 1180.6855 1195.6035 z M 1121.582 1372.9141 L 1108.875 1411.0371 L 1180.6855 1411.0371 L 1193.3926 1372.9141 L 1121.582 1372.9141 z "
         transform="scale(0.26458333)" />
      <path
         style="fill:#000000;fill-opacity:1;stroke:#000000;stroke-width:0.264583px;stroke-linecap:butt;stroke-linejoin:miter;stroke-opacity:1"
         d="m 331.38986,373.3368 19,-57.00003 19,3e-5 -19.00001,57 z"
         id="path2356-74" />
    </g>
    <g
       id="g2641"
       transform="translate(-5.3152598,65.173065)">
      <text
         xml:space="preserve"
         style="font-style:normal;font-variant:normal;font-weight:normal;font-stretch:normal;font-size:25.4px;font-family:'Old English Text MT';-inkscape-font-specification:'Old English Text MT';fill:#000000;fill-opacity:1;stroke:#000000;stroke-width:0.264999;stroke-miterlimit:4;stroke-dasharray:none;stroke-opacity:0.995983"
         x="117.92857"
         y="287.63986"
         id="text2454"><tspan
           sodipodi:role="line"
           id="tspan2452"
           x="117.92857"
           y="287.63986"
           style="stroke-width:0.265">No Man's Land</tspan></text>
      <path
         id="rect2456"
         style="font-variation-settings:normal;opacity:1;vector-effect:none;fill:#000000;fill-opacity:1;fill-rule:evenodd;stroke:#000000;stroke-width:0.19997;stroke-linecap:butt;stroke-linejoin:miter;stroke-miterlimit:4;stroke-dasharray:none;stroke-dashoffset:0;stroke-opacity:0.995983;stop-color:#000000;stop-opacity:1"
         d="m 91.544638,265.94965 v 6.85987 h -8.199706 v 11.05062 h 8.199706 v 8.35685 h 12.004712 v -8.35685 h 8.33079 v -11.05062 h -8.33079 v -6.85987 z" />
      <path
         id="rect2456-5"
         style="font-variation-settings:normal;vector-effect:none;fill:#000000;fill-opacity:1;fill-rule:evenodd;stroke:#000000;stroke-width:0.19997;stroke-linecap:butt;stroke-linejoin:miter;stroke-miterlimit:4;stroke-dasharray:none;stroke-dashoffset:0;stroke-opacity:0.995983;stop-color:#000000"
         d="m 305.32811,265.94965 v 6.85987 h -8.19971 v 11.05062 h 8.19971 v 8.35685 h 12.00472 v -8.35685 h 8.33079 v -11.05062 h -8.33079 v -6.85987 z" />
    </g>
  </g>
</svg>
